<?xml version="1.0" encoding="UTF-8"?>
<svg id="Layer_1" data-name="Layer 1" xmlns="http://www.w3.org/2000/svg" viewBox="0 0 521.97 284.41">
  <defs>
    <style>
      .cls-1 {
        fill: #f7bc14;
      }

      .cls-2 {
        fill: #c63837;
      }
    </style>
  </defs>
  <path class="cls-1" d="M247.52,277.2l10.43-79.8c-20.6,4.44-40.05,54.9-40.05,37.47V49.6c0-15.19,24.45,133.86,39.83,133.86,3.98,0-10.21-164.61-10.21-168.79V7.46c0-4.18-3.42-7.4-7.4-7.4H78.02C36.25,.06,10.44,33.28,10.44,67.63c0,27.14,16.32,55.05,53.53,67.96C20.31,146.41,0,179.44,0,211.52c0,37.02,26.57,72.7,75.17,72.7l164.95,.19c3.98,0,7.4-3.23,7.4-7.21Zm-165.71-24.68c-7.02-7.78-10.44-22.78-10.44-37.77,0-11.01,1.9-22.21,5.5-30.56,6.64-15.19,55.62-43.47,70.04-55.62,.95-.95,2.09-1.33,3.04-1.33,3.03,0,5.5,2.47,5.5,6.07v1.14c-3.03,22.21-10.63,77.83-12.91,98.52-1.9,18.03-19.74,29.23-37.02,29.23-8.92,0-17.65-3.04-23.73-9.68Zm0-130.03c-2.85-6.64-4.18-15.19-4.18-24.3,0-33.6,18.22-76.31,47.07-76.31,14.23,0,24.68,10.63,24.68,24.49,0,1.33,0,2.47-.19,3.8,0,0-1.89,16.7-4.93,33.22-2.47,15.19-33.03,46.89-51.25,46.89-4.94,0-8.92-2.28-11.2-7.78Z"/>
  <path class="cls-2" d="M274.45,284.35c-3.98,0-7.4-3.23-7.4-7.21v-7.4c0-3.99-4.11-75.12-.86-73.87,9.17,3.5,30.47,54.13,30.47,38.94V49.54c0-15.19-15.95,129.52-31.15,133.4-3.35,.86,1.53-164.15,1.53-168.32V7.4c0-4.18,3.42-7.4,7.4-7.4h162.3c54.1,0,85.23,47.27,85.23,94.72,0,42.52-25.05,85.23-81.24,94.34-32.84,5.31-73.08,10.82-73.08,45.75,0,24.49,20.31,27.52,35.5,27.52,4.18,0,7.4,3.42,7.4,7.4v7.4c0,3.99-3.23,7.21-7.4,7.21h-128.7Zm85.99-97.76c9.68-6.83,36.64-19.55,58.84-26.76,22.02-7.21,31.51-36.07,31.51-65.3s-10.06-60.17-26.77-67.2c-3.98-1.71-8.35-2.47-12.72-2.47-20.69,0-43.66,16.7-45.55,32.65-2.28,20.5-10.44,101.36-13.48,123.38l-.19,1.71c0,3.61,1.9,5.5,4.37,5.5,1.14,0,2.66-.38,3.98-1.52Z"/>
</svg>