<?xml version="1.0" encoding="UTF-8"?>
<svg id="Layer_1" data-name="Layer 1" xmlns="http://www.w3.org/2000/svg" viewBox="0 0 445.58 179.91">
  <defs>
    <style>
      .cls-1 {
        fill: #f7bf27;
      }
    </style>
  </defs>
  <path class="cls-1" d="M4.68,179.91c-2.52,0-4.68-2.04-4.68-4.56v-4.68c0-2.52,2.16-4.68,4.68-4.68,9.73,0,14.05-7.81,14.05-17.42V31.35c0-9.61-4.32-17.42-14.05-17.42-2.52,0-4.68-2.04-4.68-4.68V4.68C0,2.04,2.16,0,4.68,0H77.71c2.64,0,4.68,2.04,4.68,4.68v4.56c0,2.64-2.04,4.68-4.68,4.68-9.61,0-14.05,7.81-14.05,17.42v117.22c0,9.61,4.44,17.42,14.05,17.42,2.64,0,4.68,2.16,4.68,4.68v4.68c0,2.52-2.04,4.56-4.68,4.56H4.68Z"/>
  <path class="cls-1" d="M101.49,179.91c-2.64,0-4.68-2.04-4.68-4.56v-4.68c0-2.52,2.04-4.68,4.68-4.68,9.61,0,14.05-7.81,14.05-17.42V31.35c0-9.61-4.44-17.42-14.05-17.42-2.64,0-4.68-2.04-4.68-4.68V4.68c0-2.64,2.04-4.68,4.68-4.68H247.53c3,0,5.52,2.4,5.52,5.4V63.29c0,3.12-2.52,4.68-5.28,4.68h-10.45c-9.37,0-11.53-9.49-13.69-20.54-4.56-23.42-21.86-33.39-37.11-33.39-13.81,0-26.06,8.05-26.06,21.62v55.25c0,3.36,2.64,5.77,5.89,5.77,1.2,0,2.4-.24,3.36-.96l10.21-5.89c10.93-5.04,17.78-15.97,17.78-27.86,0-2.52,2.16-4.68,4.68-4.68h4.68c2.52,0,4.68,2.16,4.68,4.68v55.97c0,2.16-2.52,4.68-4.68,4.68h-4.68c-2.52,0-4.68-2.16-4.68-4.68v-10.09c0-4.32-3.48-7.33-7.33-7.33-1.2,0-2.16,.24-3.12,.72-16.69,7.33-26.78,23.3-26.78,41.08,0,16.33,10.93,23.9,23.66,23.9,16.09,0,35.19-12.01,39.51-33.75,2.16-11.05,4.32-20.54,13.57-20.54h10.57c2.76,0,5.28,1.56,5.28,4.56v57.89c0,3.12-2.52,5.52-5.52,5.52H101.49Z"/>
  <path class="cls-1" d="M367.88,179.91c-2.52,0-4.56-2.04-4.56-4.56v-4.68c0-2.52,2.04-4.68,4.56-4.68,9.61,0,14.05-7.57,14.05-17.17-3.6-33.75-20.06-66.78-37.83-92-1.44-1.92-3.48-2.88-5.76-2.88-3.72,0-7.21,3-7.21,7.09v16.09c0,15.49,1.68,30.99,5.04,46.12,2.28,9.97,4.8,21.62,7.09,31.83,.36,1.44,.48,3,.48,4.44,0,11.05-9.01,20.42-20.3,20.42h-51.28c-2.52,0-4.68-2.04-4.68-4.56v-4.68c0-2.52,2.16-4.68,4.68-4.68,9.73,0,14.05-7.81,14.05-17.42V31.35c0-9.61-4.32-17.42-14.05-17.42-2.52,0-4.68-2.04-4.68-4.68V4.68c0-2.64,2.16-4.68,4.68-4.68h73.02c2.64,0,4.68,2.04,4.68,4.68v4.56c0,2.64-2.04,4.68-4.68,4.68-3.24,0-7.09,.24-7.09,2.28,0,.72,.36,1.56,1.44,2.76,9.73,10.33,19.94,23.18,29.3,37.95,1.32,2.04,3.6,3.36,5.88,3.36,3.84,0,7.21-3.24,7.21-7.21V31.35c0-9.61-4.32-17.42-14.05-17.42-2.52,0-4.56-2.04-4.56-4.68V4.68c0-2.64,2.04-4.68,4.56-4.68h73.02c2.64,0,4.68,2.04,4.68,4.68v4.56c0,2.64-2.04,4.68-4.68,4.68-9.61,0-14.05,7.81-14.05,17.42v117.22c0,9.61,4.44,17.42,14.05,17.42,2.64,0,4.68,2.16,4.68,4.68v4.68c0,2.52-2.04,4.56-4.68,4.56h-73.02Z"/>
</svg>