<?xml version="1.0" encoding="UTF-8"?>
<svg id="Layer_1" data-name="Layer 1" xmlns="http://www.w3.org/2000/svg" viewBox="0 0 257.63 284.35">
  <defs>
    <style>
      .cls-1 {
        fill: #c63837;
      }
    </style>
  </defs>
  <path class="cls-1" d="M10.11,284.35c-3.98,0-7.4-3.23-7.4-7.21v-7.4c0-3.99-4.11-75.12-.86-73.87,9.17,3.5,30.47,54.13,30.47,38.94V49.54c0-15.19-15.95,129.52-31.15,133.4-3.35,.86,1.53-164.15,1.53-168.32V7.4C2.7,3.22,6.12,0,10.1,0H172.4c54.1,0,85.23,47.27,85.23,94.72,0,42.52-25.05,85.23-81.24,94.34-32.84,5.31-73.08,10.82-73.08,45.75,0,24.49,20.31,27.52,35.5,27.52,4.18,0,7.4,3.42,7.4,7.4v7.4c0,3.99-3.23,7.21-7.4,7.21H10.11Zm85.99-97.75c9.68-6.83,36.64-19.55,58.84-26.76,22.02-7.21,31.51-36.07,31.51-65.3s-10.06-60.17-26.77-67.2c-3.98-1.71-8.35-2.47-12.72-2.47-20.69,0-43.66,16.7-45.55,32.65-2.28,20.5-10.44,101.36-13.48,123.38l-.19,1.71c0,3.61,1.9,5.5,4.37,5.5,1.14,0,2.66-.38,3.98-1.52h0Z"/>
</svg>