<?xml version="1.0" encoding="UTF-8"?>
<svg id="Layer_1" data-name="Layer 1" xmlns="http://www.w3.org/2000/svg" viewBox="0 0 258.43 284.35">
  <defs>
    <style>
      .cls-1 {
        fill: #f7bc14;
      }
    </style>
  </defs>
  <path class="cls-1" d="M247.52,277.14l10.43-79.8c-20.6,4.44-40.05,54.9-40.05,37.47V49.54c0-15.19,24.45,133.86,39.83,133.86,3.98,0-10.21-164.61-10.21-168.79V7.4c0-4.18-3.42-7.4-7.4-7.4H78.02C36.25,0,10.44,33.22,10.44,67.57c0,27.14,16.32,55.05,53.53,67.96C20.31,146.35,0,179.38,0,211.46c0,37.02,26.57,72.7,75.17,72.7l164.95,.19c3.98,0,7.4-3.23,7.4-7.21h0Zm-165.71-24.68c-7.02-7.78-10.44-22.78-10.44-37.77,0-11.01,1.9-22.21,5.5-30.56,6.64-15.19,55.62-43.47,70.04-55.62,.95-.95,2.09-1.33,3.04-1.33,3.03,0,5.5,2.47,5.5,6.07v1.14c-3.03,22.21-10.63,77.83-12.91,98.52-1.9,18.03-19.74,29.23-37.02,29.23-8.92,0-17.65-3.04-23.73-9.68h.02Zm0-130.03c-2.85-6.64-4.18-15.19-4.18-24.3,0-33.6,18.22-76.31,47.07-76.31,14.23,0,24.68,10.63,24.68,24.49,0,1.33,0,2.47-.19,3.8,0,0-1.89,16.7-4.93,33.22-2.47,15.19-33.03,46.89-51.25,46.89-4.94,0-8.92-2.28-11.2-7.78h0Z"/>
</svg>