<?xml version="1.0" encoding="UTF-8"?>
<svg id="Layer_1" data-name="Layer 1" xmlns="http://www.w3.org/2000/svg" viewBox="0 0 2140.96 1481.07">
  <defs>
    <style>
      .cls-1 {
        fill: #c63837;
      }

      .cls-2 {
        isolation: isolate;
      }
    </style>
  </defs>
  <g class="cls-2">
    <path class="cls-1" d="M311.14,560.88c-7.86,0-14.23-6.37-14.23-14.23v-14.6c0-7.86,6.37-14.6,14.23-14.6,2.25,0,3-1.12,3.37-3l-.75-2.25-52.79-78.63c-6.37-9.36-16.85-14.6-27.71-14.6-21.72,0-34.82,16.85-34.82,44.18,0,41.93,20.97,54.29,59.16,54.29,8.24,0,14.6,6.74,14.6,14.6v14.6c0,7.86-6.37,14.23-14.6,14.23H14.6c-8.24,0-14.6-6.37-14.6-14.23v-14.6c0-8.24,6.37-14.6,14.6-14.6,29.95,0,43.43-24.34,43.43-54.29V97.72c0-29.95-13.48-54.29-43.43-54.29-8.24,0-14.6-6.37-14.6-14.6V14.6C0,6.37,6.37,0,14.6,0H334.73c106.34,0,168.11,93.23,168.11,186.46,0,64.77-29.2,129.17-93.23,164-10.11,5.99-16.1,16.1-16.1,27.33,0,6.37,1.87,12.36,5.24,17.6l73.39,109.33c5.62,7.86,14.6,12.73,24.34,12.73,7.86,0,14.6,6.74,14.6,14.6v14.6c0,7.86-6.74,14.23-14.6,14.23h-185.34Zm-126.93-192.83c19.1-13.48,72.26-38.57,115.7-52.79,43.81-14.23,62.53-71.14,62.53-128.43s-20.22-119.07-53.17-132.92c-7.49-3.37-16.1-4.87-24.71-4.87-40.81,0-86.49,32.95-89.86,64.4-4.49,40.44-20.59,199.94-26.58,243.37l-.37,3.37c0,7.11,3.74,10.86,8.61,10.86,2.25,0,5.24-.75,7.86-3Z"/>
  </g>
  <g class="cls-2">
    <path class="cls-1" d="M544.79,280.44C544.79,93.61,684.45,0,824.11,0s279.32,93.61,279.32,280.44-139.66,280.07-279.32,280.07-279.32-93.23-279.32-280.07Zm418.23,0c0-158.38-69.64-237.76-138.91-237.76s-138.91,79.38-138.91,237.76,69.64,237.76,138.91,237.76,138.91-79.38,138.91-237.76Z"/>
  </g>
  <g class="cls-2">
    <path class="cls-1" d="M1106.8,560.88c-7.86,0-14.6-6.37-14.6-14.23v-14.6c0-7.86,6.74-14.6,14.6-14.6,30.33,0,43.81-24.34,43.81-54.29V97.72c0-29.95-13.48-54.29-43.81-54.29-7.86,0-14.6-6.37-14.6-14.6V14.6c0-8.24,6.74-14.6,14.6-14.6h315.26c112.33,0,183.84,165.49,183.84,316.39,0,127.3-50.92,244.5-170.74,244.5h-328.37Zm309.27-49.05c33.7-13.48,50.92-87.99,50.92-173.73,0-134.04-41.56-295.04-126.55-295.04-42.68,0-53.17,21.72-53.17,51.3l16.85,365.06c4.49,32.95,35.57,54.67,70.02,58.04h18.35c8.24-.75,15.73-2.62,23.59-5.62Z"/>
  </g>
  <g class="cls-2">
    <path class="cls-1" d="M1654.59,347.84V68.14c0-8.99-6.37-16.47-16.47-16.47-9.36,0-17.22-7.86-17.22-17.22V17.22c0-9.36,7.86-17.22,17.22-17.22h145.28c33.32,0,59.91,27.33,59.91,60.66,0,4.49-.38,8.61-1.12,12.73-19.84,90.98-47.18,181.59-47.18,275.2,0,114.57,42.68,171.86,84.99,171.86s84.62-56.91,84.62-171.86V90.98c0-21.72-17.6-39.31-39.69-39.31-9.36,0-16.85-7.86-16.85-17.22V17.22c0-9.36,7.49-17.22,16.85-17.22h198.82c9.36,0,17.22,7.86,17.22,17.22v17.22c0,9.36-7.86,17.22-17.22,17.22-10.48,0-19.09,8.24-19.09,19.09V347.84c0,142.28-112.33,213.42-225.03,213.42s-225.03-71.14-225.03-213.42Z"/>
  </g>
  <g class="cls-2">
    <path class="cls-1" d="M0,1200.26c0-140.41,92.11-278.19,276.32-280.07,51.3,0,101.47,15.73,144.15,43.06,5.24,3.37,11.61,5.24,17.97,5.24,18.72,0,33.7-14.6,33.7-33.7,0-8.24,6.36-14.6,14.23-14.6h14.6c7.86,0,14.23,6.37,14.23,14.23v240.75c0,9.36-7.49,14.23-16.47,14.23h-32.57c-75.63,0-55.41-159.5-132.17-201.44-16.1-8.99-31.83-13.11-47.18-13.11-83.12,0-147.15,121.69-147.15,239.63,0,85.74,34.07,169.61,119.44,203.31,17.6,7.11,35.2,10.48,52.04,10.48,75.63,0,137.79-65.52,158.38-139.66,2.62-9.73,10.11-14.23,17.97-14.23,10.86,0,22.47,8.61,22.47,21.34,0,2.25-.37,4.49-1.12,6.74-29.58,102.97-123.18,178.22-232.14,178.22C92.11,1478.45,0,1341.79,0,1200.26Z"/>
    <path class="cls-1" d="M574.74,1481.07c-7.86,0-14.6-6.37-14.6-14.23v-14.6c0-7.86,6.74-14.6,14.6-14.6,30.33,0,43.81-24.34,43.81-54.29v-365.43c0-29.95-13.48-54.29-43.81-54.29-7.86,0-14.6-6.37-14.6-14.6v-14.23c0-8.24,6.74-14.6,14.6-14.6h227.65c8.24,0,14.6,6.37,14.6,14.6v14.23c0,8.24-6.36,14.6-14.6,14.6-29.95,0-43.81,24.34-43.81,54.29v365.43c0,29.95,13.85,54.29,43.81,54.29,8.24,0,14.6,6.74,14.6,14.6v14.6c0,7.86-6.36,14.23-14.6,14.23h-227.65Z"/>
    <path class="cls-1" d="M876.53,1481.07c-7.86,0-14.6-6.37-14.6-14.23v-14.6c0-7.86,6.74-14.6,14.6-14.6,30.33,0,43.81-24.34,43.81-54.29v-365.43c0-29.95-13.48-54.29-43.81-54.29-7.86,0-14.6-6.37-14.6-14.6v-14.23c0-8.24,6.74-14.6,14.6-14.6h315.26c112.33,0,183.84,165.49,183.84,316.39,0,127.3-50.92,244.5-170.74,244.5h-328.37Zm309.27-49.05c33.7-13.48,50.92-87.99,50.92-173.73,0-134.04-41.56-295.04-126.55-295.04-42.68,0-53.17,21.72-53.17,51.3l16.85,365.06c4.49,32.95,35.57,54.67,70.02,58.04h18.35c8.24-.75,15.73-2.62,23.59-5.62Z"/>
    <path class="cls-1" d="M1420.56,1200.63c0-186.84,139.66-280.44,279.32-280.44s279.32,93.61,279.32,280.44-139.66,280.07-279.32,280.07-279.32-93.23-279.32-280.07Zm418.23,0c0-158.38-69.64-237.76-138.91-237.76s-138.91,79.38-138.91,237.76,69.64,237.76,138.91,237.76,138.91-79.38,138.91-237.76Z"/>
  </g>
</svg>